<mxfile host="app.diagrams.net" modified="2021-11-08T08:37:07.039Z" agent="5.0 (Windows)" etag="7kDRuqYrSHJ1lyV2FLdl" version="15.6.8" type="github">
  <diagram id="r8R11DE93iB3vhH_Gn6m" name="Page-1">
    <mxGraphModel dx="4405" dy="3030" grid="1" gridSize="10" guides="1" tooltips="1" connect="1" arrows="1" fold="1" page="1" pageScale="1" pageWidth="850" pageHeight="1100" math="0" shadow="0">
      <root>
        <mxCell id="0" />
        <mxCell id="1" parent="0" />
        <mxCell id="GFjxQB8X3qzK79HojOMt-1" value="&lt;p style=&quot;margin: 0px ; margin-top: 4px ; text-align: center&quot;&gt;&lt;b&gt;QpsBanksFragmentView&lt;/b&gt;&lt;/p&gt;&lt;hr size=&quot;1&quot;&gt;&lt;p style=&quot;margin: 0px ; margin-left: 4px&quot;&gt;+ field: Type&lt;br&gt;&lt;/p&gt;&lt;hr size=&quot;1&quot;&gt;&lt;p style=&quot;margin: 0px ; margin-left: 4px&quot;&gt;+ method(): Type&lt;/p&gt;" style="verticalAlign=top;align=left;overflow=fill;fontSize=12;fontFamily=Helvetica;html=1;" vertex="1" parent="1">
          <mxGeometry x="-280" y="350" width="200" height="90" as="geometry" />
        </mxCell>
        <mxCell id="GFjxQB8X3qzK79HojOMt-2" value="&lt;p style=&quot;margin: 0px ; margin-top: 4px ; text-align: center&quot;&gt;&lt;b&gt;QpsBanksFragmentBindModel&lt;/b&gt;&lt;/p&gt;&lt;hr size=&quot;1&quot;&gt;&lt;p style=&quot;margin: 0px ; margin-left: 4px&quot;&gt;+ bankItemSelectedAction: Action&amp;lt;QpsReceiverBank&amp;gt;()&lt;/p&gt;" style="verticalAlign=top;align=left;overflow=fill;fontSize=12;fontFamily=Helvetica;html=1;" vertex="1" parent="1">
          <mxGeometry x="480" y="350" width="320" height="90" as="geometry" />
        </mxCell>
        <mxCell id="GFjxQB8X3qzK79HojOMt-3" value="&lt;p style=&quot;margin: 0px ; margin-top: 4px ; text-align: center&quot;&gt;&lt;b&gt;QpsBanksFragmentRoute&lt;/b&gt;&lt;/p&gt;&lt;hr size=&quot;1&quot;&gt;&lt;hr size=&quot;1&quot;&gt;&lt;p style=&quot;margin: 0px ; margin-left: 4px&quot;&gt;+ getFragmentClass() = QpsBanksFragmentView::class.java&lt;/p&gt;" style="verticalAlign=top;align=left;overflow=fill;fontSize=12;fontFamily=Helvetica;html=1;" vertex="1" parent="1">
          <mxGeometry x="80" y="-60" width="360" height="90" as="geometry" />
        </mxCell>
        <mxCell id="GFjxQB8X3qzK79HojOMt-4" value="&lt;p style=&quot;margin: 0px ; margin-top: 4px ; text-align: center&quot;&gt;&lt;b&gt;QpsBanksFragmentPresenter&lt;/b&gt;&lt;/p&gt;&lt;hr size=&quot;1&quot;&gt;&lt;p style=&quot;margin: 0px ; margin-left: 4px&quot;&gt;+ &lt;strike&gt;defaultBankItem&lt;/strike&gt;: QpsReceiverBank? = route.qpsBanksParams.defaultBankItem&lt;/p&gt;&lt;hr size=&quot;1&quot;&gt;&lt;p style=&quot;margin: 0px ; margin-left: 4px&quot;&gt;- &lt;strike&gt;finishAndSetResult&lt;/strike&gt;(resultBankItem: QpsReceiverBank) --&amp;gt; finishFragment()&lt;br&gt;&lt;br&gt;- setupBankItems() -- переделавать, то есть subscribeIoHandleError будет вызывать handleGetBanks&lt;br&gt;&lt;br&gt;- abstract handleGetBanks(banks: List&amp;lt;QpsReceiverBank&amp;gt;)&lt;/p&gt;" style="verticalAlign=top;align=left;overflow=fill;fontSize=12;fontFamily=Helvetica;html=1;" vertex="1" parent="1">
          <mxGeometry y="720" width="600" height="150" as="geometry" />
        </mxCell>
        <mxCell id="GFjxQB8X3qzK79HojOMt-7" style="edgeStyle=orthogonalEdgeStyle;rounded=0;orthogonalLoop=1;jettySize=auto;html=1;entryX=0.5;entryY=1;entryDx=0;entryDy=0;" edge="1" parent="1" source="GFjxQB8X3qzK79HojOMt-5" target="GFjxQB8X3qzK79HojOMt-1">
          <mxGeometry relative="1" as="geometry" />
        </mxCell>
        <mxCell id="GFjxQB8X3qzK79HojOMt-5" value="&lt;p style=&quot;margin: 0px ; margin-top: 4px ; text-align: center&quot;&gt;&lt;b&gt;SingleQpsBanksFragmentView&lt;/b&gt;&lt;/p&gt;&lt;hr size=&quot;1&quot;&gt;&lt;p style=&quot;margin: 0px ; margin-left: 4px&quot;&gt;+ field: Type&lt;/p&gt;&lt;hr size=&quot;1&quot;&gt;&lt;p style=&quot;margin: 0px ; margin-left: 4px&quot;&gt;+ createConfigurator() = SingleQpsBanksFragmentConfigurator(arguments.nonNull)&lt;/p&gt;" style="verticalAlign=top;align=left;overflow=fill;fontSize=12;fontFamily=Helvetica;html=1;" vertex="1" parent="1">
          <mxGeometry x="-680" y="520" width="480" height="90" as="geometry" />
        </mxCell>
        <mxCell id="GFjxQB8X3qzK79HojOMt-8" value="&lt;p style=&quot;margin: 0px ; margin-top: 4px ; text-align: center&quot;&gt;&lt;b&gt;QpsBankController&lt;/b&gt;&lt;/p&gt;&lt;hr size=&quot;1&quot;&gt;&lt;p style=&quot;margin: 0px ; margin-left: 4px&quot;&gt;В верстке добавить иконку галочки.&lt;/p&gt;&lt;p style=&quot;margin: 0px ; margin-left: 4px&quot;&gt;Теперь передается не QpsReceiverBank, &lt;br&gt;&lt;/p&gt;&lt;p style=&quot;margin: 0px ; margin-left: 4px&quot;&gt;а SelectableData&amp;lt;QpsReceiverBank&amp;gt;. &lt;br&gt;&lt;/p&gt;&lt;p style=&quot;margin: 0px ; margin-left: 4px&quot;&gt;По значению isSelected отображать или скрывать галочку&lt;br&gt;&lt;/p&gt;" style="verticalAlign=top;align=left;overflow=fill;fontSize=12;fontFamily=Helvetica;html=1;" vertex="1" parent="1">
          <mxGeometry x="-360" y="220" width="360" height="100" as="geometry" />
        </mxCell>
        <mxCell id="GFjxQB8X3qzK79HojOMt-10" style="edgeStyle=orthogonalEdgeStyle;rounded=0;orthogonalLoop=1;jettySize=auto;html=1;entryX=0.5;entryY=1;entryDx=0;entryDy=0;" edge="1" parent="1" source="GFjxQB8X3qzK79HojOMt-9" target="GFjxQB8X3qzK79HojOMt-3">
          <mxGeometry relative="1" as="geometry" />
        </mxCell>
        <mxCell id="GFjxQB8X3qzK79HojOMt-9" value="&lt;p style=&quot;margin: 0px ; margin-top: 4px ; text-align: center&quot;&gt;&lt;b&gt;SingleQpsBanksFragmentRoute&lt;/b&gt;&lt;/p&gt;&lt;hr size=&quot;1&quot;&gt;&lt;p style=&quot;margin: 0px ; margin-left: 4px&quot;&gt;+ qpsBanksParams: QpsBanksParams = QpsBanksParams()&lt;/p&gt;&lt;hr size=&quot;1&quot;&gt;" style="verticalAlign=top;align=left;overflow=fill;fontSize=12;fontFamily=Helvetica;html=1;" vertex="1" parent="1">
          <mxGeometry x="-120" y="110" width="360" height="50" as="geometry" />
        </mxCell>
        <mxCell id="GFjxQB8X3qzK79HojOMt-12" style="edgeStyle=orthogonalEdgeStyle;rounded=0;orthogonalLoop=1;jettySize=auto;html=1;entryX=0.5;entryY=1;entryDx=0;entryDy=0;" edge="1" parent="1" source="GFjxQB8X3qzK79HojOMt-11" target="GFjxQB8X3qzK79HojOMt-3">
          <mxGeometry relative="1" as="geometry" />
        </mxCell>
        <mxCell id="GFjxQB8X3qzK79HojOMt-11" value="&lt;p style=&quot;margin: 0px ; margin-top: 4px ; text-align: center&quot;&gt;&lt;b&gt;MultipleQpsBanksFragmentRoute&lt;/b&gt;&lt;/p&gt;&lt;hr size=&quot;1&quot;&gt;&lt;p style=&quot;margin: 0px ; margin-left: 4px&quot;&gt;+ qpsBankParams: ArrayList&amp;lt;QpsBanksParams&amp;gt; = emptyList()&lt;br&gt;&lt;/p&gt;" style="verticalAlign=top;align=left;overflow=fill;fontSize=12;fontFamily=Helvetica;html=1;" vertex="1" parent="1">
          <mxGeometry x="280" y="110" width="360" height="50" as="geometry" />
        </mxCell>
        <mxCell id="GFjxQB8X3qzK79HojOMt-14" style="edgeStyle=orthogonalEdgeStyle;rounded=0;orthogonalLoop=1;jettySize=auto;html=1;entryX=0.5;entryY=1;entryDx=0;entryDy=0;" edge="1" parent="1" source="GFjxQB8X3qzK79HojOMt-13" target="GFjxQB8X3qzK79HojOMt-4">
          <mxGeometry relative="1" as="geometry" />
        </mxCell>
        <mxCell id="GFjxQB8X3qzK79HojOMt-13" value="&lt;p style=&quot;margin: 0px ; margin-top: 4px ; text-align: center&quot;&gt;&lt;b&gt;SingleQpsBanksFragmentPresenter&lt;/b&gt;&lt;/p&gt;&lt;hr size=&quot;1&quot;&gt;&lt;p style=&quot;margin: 0px ; margin-left: 4px&quot;&gt;+ field: Type&lt;/p&gt;&lt;hr size=&quot;1&quot;&gt;&lt;p style=&quot;margin: 0px ; margin-left: 4px&quot;&gt;+ method(): Type&lt;/p&gt;" style="verticalAlign=top;align=left;overflow=fill;fontSize=12;fontFamily=Helvetica;html=1;" vertex="1" parent="1">
          <mxGeometry x="40" y="950" width="240" height="90" as="geometry" />
        </mxCell>
        <mxCell id="GFjxQB8X3qzK79HojOMt-16" style="edgeStyle=orthogonalEdgeStyle;rounded=0;orthogonalLoop=1;jettySize=auto;html=1;entryX=0.5;entryY=1;entryDx=0;entryDy=0;" edge="1" parent="1" source="GFjxQB8X3qzK79HojOMt-15" target="GFjxQB8X3qzK79HojOMt-4">
          <mxGeometry relative="1" as="geometry" />
        </mxCell>
        <mxCell id="GFjxQB8X3qzK79HojOMt-15" value="&lt;p style=&quot;margin: 0px ; margin-top: 4px ; text-align: center&quot;&gt;&lt;b&gt;MultiplyQpsBanksFragmentPresenter&lt;/b&gt;&lt;/p&gt;&lt;hr size=&quot;1&quot;&gt;&lt;p style=&quot;margin: 0px ; margin-left: 4px&quot;&gt;+ field: Type&lt;/p&gt;&lt;hr size=&quot;1&quot;&gt;&lt;p style=&quot;margin: 0px ; margin-left: 4px&quot;&gt;+ method(): Type&lt;/p&gt;" style="verticalAlign=top;align=left;overflow=fill;fontSize=12;fontFamily=Helvetica;html=1;" vertex="1" parent="1">
          <mxGeometry x="320" y="950" width="240" height="90" as="geometry" />
        </mxCell>
        <mxCell id="GFjxQB8X3qzK79HojOMt-18" style="edgeStyle=orthogonalEdgeStyle;rounded=0;orthogonalLoop=1;jettySize=auto;html=1;entryX=0.5;entryY=1;entryDx=0;entryDy=0;" edge="1" parent="1" source="GFjxQB8X3qzK79HojOMt-17" target="GFjxQB8X3qzK79HojOMt-1">
          <mxGeometry relative="1" as="geometry" />
        </mxCell>
        <mxCell id="GFjxQB8X3qzK79HojOMt-17" value="&lt;p style=&quot;margin: 0px ; margin-top: 4px ; text-align: center&quot;&gt;&lt;b&gt;MultiplyQpsBanksFragmentView&lt;/b&gt;&lt;/p&gt;&lt;hr size=&quot;1&quot;&gt;&lt;p style=&quot;margin: 0px ; margin-left: 4px&quot;&gt;+ field: Type&lt;/p&gt;&lt;hr size=&quot;1&quot;&gt;&lt;p style=&quot;margin: 0px ; margin-left: 4px&quot;&gt;+ createConfigurator() = MultiplyQpsBanksFragmentConfigurator(arguments.nonNull)&lt;/p&gt;" style="verticalAlign=top;align=left;overflow=fill;fontSize=12;fontFamily=Helvetica;html=1;" vertex="1" parent="1">
          <mxGeometry x="-160" y="520" width="480" height="90" as="geometry" />
        </mxCell>
        <mxCell id="GFjxQB8X3qzK79HojOMt-21" style="edgeStyle=orthogonalEdgeStyle;rounded=0;orthogonalLoop=1;jettySize=auto;html=1;entryX=0.5;entryY=1;entryDx=0;entryDy=0;" edge="1" parent="1" source="GFjxQB8X3qzK79HojOMt-19" target="GFjxQB8X3qzK79HojOMt-2">
          <mxGeometry relative="1" as="geometry" />
        </mxCell>
        <mxCell id="GFjxQB8X3qzK79HojOMt-19" value="&lt;p style=&quot;margin: 0px ; margin-top: 4px ; text-align: center&quot;&gt;&lt;b&gt;SingleQpsBanksFragmentBindModel&lt;/b&gt;&lt;/p&gt;&lt;hr size=&quot;1&quot;&gt;&lt;p style=&quot;margin: 0px ; margin-left: 4px&quot;&gt;+ field: Type&lt;/p&gt;&lt;hr size=&quot;1&quot;&gt;&lt;p style=&quot;margin: 0px ; margin-left: 4px&quot;&gt;+ method(): Type&lt;/p&gt;" style="verticalAlign=top;align=left;overflow=fill;fontSize=12;fontFamily=Helvetica;html=1;" vertex="1" parent="1">
          <mxGeometry x="400" y="520" width="240" height="90" as="geometry" />
        </mxCell>
        <mxCell id="GFjxQB8X3qzK79HojOMt-22" style="edgeStyle=orthogonalEdgeStyle;rounded=0;orthogonalLoop=1;jettySize=auto;html=1;entryX=0.5;entryY=1;entryDx=0;entryDy=0;" edge="1" parent="1" source="GFjxQB8X3qzK79HojOMt-20" target="GFjxQB8X3qzK79HojOMt-2">
          <mxGeometry relative="1" as="geometry" />
        </mxCell>
        <mxCell id="GFjxQB8X3qzK79HojOMt-20" value="&lt;p style=&quot;margin: 0px ; margin-top: 4px ; text-align: center&quot;&gt;&lt;b&gt;MultiplyQpsBanksFragmentBindModel&lt;/b&gt;&lt;/p&gt;&lt;hr size=&quot;1&quot;&gt;&lt;p style=&quot;margin: 0px ; margin-left: 4px&quot;&gt;+ setResultAction: Action&amp;lt;Unit&amp;gt;&lt;/p&gt;&lt;hr size=&quot;1&quot;&gt;&lt;p style=&quot;margin: 0px ; margin-left: 4px&quot;&gt;+ method(): Type&lt;/p&gt;" style="verticalAlign=top;align=left;overflow=fill;fontSize=12;fontFamily=Helvetica;html=1;" vertex="1" parent="1">
          <mxGeometry x="680" y="520" width="240" height="90" as="geometry" />
        </mxCell>
        <mxCell id="GFjxQB8X3qzK79HojOMt-23" value="&lt;p style=&quot;margin: 0px ; margin-top: 4px ; text-align: center&quot;&gt;&lt;b&gt;QpsBanksFragmentConfigurator&lt;/b&gt;&lt;/p&gt;&lt;hr size=&quot;1&quot;&gt;&lt;p style=&quot;margin: 0px ; margin-left: 4px&quot;&gt;+ field: Type&lt;/p&gt;&lt;hr size=&quot;1&quot;&gt;&lt;p style=&quot;margin: 0px ; margin-left: 4px&quot;&gt;+ method(): Type&lt;/p&gt;" style="verticalAlign=top;align=left;overflow=fill;fontSize=12;fontFamily=Helvetica;html=1;" vertex="1" parent="1">
          <mxGeometry x="160" y="-400" width="200" height="80" as="geometry" />
        </mxCell>
        <mxCell id="GFjxQB8X3qzK79HojOMt-26" style="edgeStyle=orthogonalEdgeStyle;rounded=0;orthogonalLoop=1;jettySize=auto;html=1;entryX=0.5;entryY=1;entryDx=0;entryDy=0;" edge="1" parent="1" source="GFjxQB8X3qzK79HojOMt-24" target="GFjxQB8X3qzK79HojOMt-23">
          <mxGeometry relative="1" as="geometry" />
        </mxCell>
        <mxCell id="GFjxQB8X3qzK79HojOMt-24" value="&lt;p style=&quot;margin: 0px ; margin-top: 4px ; text-align: center&quot;&gt;&lt;b&gt;SingleQpsBanksFragmentConfigurator&lt;/b&gt;&lt;/p&gt;&lt;hr size=&quot;1&quot;&gt;&lt;p style=&quot;margin: 0px ; margin-left: 4px&quot;&gt;+ field: Type&lt;/p&gt;&lt;hr size=&quot;1&quot;&gt;&lt;p style=&quot;margin: 0px ; margin-left: 4px&quot;&gt;+ method(): Type&lt;/p&gt;" style="verticalAlign=top;align=left;overflow=fill;fontSize=12;fontFamily=Helvetica;html=1;" vertex="1" parent="1">
          <mxGeometry y="-240" width="240" height="90" as="geometry" />
        </mxCell>
        <mxCell id="GFjxQB8X3qzK79HojOMt-27" style="edgeStyle=orthogonalEdgeStyle;rounded=0;orthogonalLoop=1;jettySize=auto;html=1;entryX=0.5;entryY=1;entryDx=0;entryDy=0;" edge="1" parent="1" source="GFjxQB8X3qzK79HojOMt-25" target="GFjxQB8X3qzK79HojOMt-23">
          <mxGeometry relative="1" as="geometry" />
        </mxCell>
        <mxCell id="GFjxQB8X3qzK79HojOMt-25" value="&lt;p style=&quot;margin: 0px ; margin-top: 4px ; text-align: center&quot;&gt;&lt;b&gt;MultiplyBanksFragmentConfigurator&lt;/b&gt;&lt;/p&gt;&lt;hr size=&quot;1&quot;&gt;&lt;p style=&quot;margin: 0px ; margin-left: 4px&quot;&gt;+ field: Type&lt;/p&gt;&lt;hr size=&quot;1&quot;&gt;&lt;p style=&quot;margin: 0px ; margin-left: 4px&quot;&gt;+ method(): Type&lt;/p&gt;" style="verticalAlign=top;align=left;overflow=fill;fontSize=12;fontFamily=Helvetica;html=1;" vertex="1" parent="1">
          <mxGeometry x="280" y="-240" width="240" height="80" as="geometry" />
        </mxCell>
      </root>
    </mxGraphModel>
  </diagram>
</mxfile>
